{
  "accessors": [
    {
      "bufferView": 2,
      "componentType": 5126,
      "count": 2903,
      "max": [
        340.41400146484375,
        780.3560180664063,
        805.8319702148438
      ],
      "min": [
        -359.22198486328125,
        78.34159851074219,
        -922.3670043945313
      ],
      "type": "VEC3"
    },
    {
      "bufferView": 2,
      "byteOffset": 34836,
      "componentType": 5126,
      "count": 2903,
      "max": [
        1.0,
        1.0,
        1.0
      ],
      "min": [
        -1.0,
        -1.0,
        -1.0
      ],
      "type": "VEC3"
    },
    {
      "bufferView": 1,
      "componentType": 5126,
      "count": 2903,
      "max": [
        0.9974560141563416,
        0.9973040223121643
      ],
      "min": [
        0.0024915700778365135,
        0.002491449937224388
      ],
      "type": "VEC2"
    },
    {
      "bufferView": 0,
      "componentType": 5125,
      "count": 8874,
      "type": "SCALAR"
    },
    {
      "bufferView": 2,
      "byteOffset": 69672,
      "componentType": 5126,
      "count": 756,
      "max": [
        56.90081787109375,
        156.7076873779297,
        156.70510864257813
      ],
      "min": [
        -55.5072021484375,
        -156.7066192626953,
        -156.70889282226563
      ],
      "type": "VEC3"
    },
    {
      "bufferView": 2,
      "byteOffset": 78744,
      "componentType": 5126,
      "count": 756,
      "max": [
        0.9973945617675781,
        1.0,
        1.0
      ],
      "min": [
        -0.9998972415924072,
        -1.0,
        -1.0
      ],
      "type": "VEC3"
    },
    {
      "bufferView": 1,
      "byteOffset": 23224,
      "componentType": 5126,
      "count": 756,
      "max": [
        0.985496997833252,
        0.8280529975891113
      ],
      "min": [
        0.4549050033092499,
        0.06228490173816681
      ],
      "type": "VEC2"
    },
    {
      "bufferView": 0,
      "byteOffset": 35496,
      "componentType": 5125,
      "count": 2970,
      "type": "SCALAR"
    },
    {
      "bufferView": 2,
      "byteOffset": 87816,
      "componentType": 5126,
      "count": 756,
      "max": [
        55.506500244140625,
        156.70773315429688,
        156.70489501953125
      ],
      "min": [
        -56.9014892578125,
        -156.70657348632813,
        -156.7091064453125
      ],
      "type": "VEC3"
    },
    {
      "bufferView": 2,
      "byteOffset": 96888,
      "componentType": 5126,
      "count": 756,
      "max": [
        0.9998972415924072,
        1.0,
        1.0
      ],
      "min": [
        -0.9973946213722229,
        -1.0,
        -1.0
      ],
      "type": "VEC3"
    },
    {
      "bufferView": 1,
      "byteOffset": 29272,
      "componentType": 5126,
      "count": 756,
      "max": [
        0.985496997833252,
        0.8280529975891113
      ],
      "min": [
        0.4549050033092499,
        0.06228490173816681
      ],
      "type": "VEC2"
    },
    {
      "bufferView": 0,
      "byteOffset": 47376,
      "componentType": 5125,
      "count": 2970,
      "type": "SCALAR"
    },
    {
      "bufferView": 2,
      "byteOffset": 105960,
      "componentType": 5126,
      "count": 756,
      "max": [
        55.5068359375,
        156.707275390625,
        156.70797729492188
      ],
      "min": [
        -56.901153564453125,
        -156.7068328857422,
        -156.70602416992188
      ],
      "type": "VEC3"
    },
    {
      "bufferView": 2,
      "byteOffset": 115032,
      "componentType": 5126,
      "count": 756,
      "max": [
        0.9998972415924072,
        1.0,
        1.0
      ],
      "min": [
        -0.9973946213722229,
        -1.0,
        -1.0
      ],
      "type": "VEC3"
    },
    {
      "bufferView": 1,
      "byteOffset": 35320,
      "componentType": 5126,
      "count": 756,
      "max": [
        0.985496997833252,
        0.8280529975891113
      ],
      "min": [
        0.4549050033092499,
        0.06228490173816681
      ],
      "type": "VEC2"
    },
    {
      "bufferView": 0,
      "byteOffset": 59256,
      "componentType": 5125,
      "count": 2970,
      "type": "SCALAR"
    },
    {
      "bufferView": 2,
      "byteOffset": 124104,
      "componentType": 5126,
      "count": 756,
      "max": [
        56.900726318359375,
        156.70736694335938,
        156.70797729492188
      ],
      "min": [
        -55.507293701171875,
        -156.7067413330078,
        -156.70602416992188
      ],
      "type": "VEC3"
    },
    {
      "bufferView": 2,
      "byteOffset": 133176,
      "componentType": 5126,
      "count": 756,
      "max": [
        0.9973945617675781,
        1.0,
        1.0
      ],
      "min": [
        -0.9998971223831177,
        -1.0,
        -1.0
      ],
      "type": "VEC3"
    },
    {
      "bufferView": 1,
      "byteOffset": 41368,
      "componentType": 5126,
      "count": 756,
      "max": [
        0.985496997833252,
        0.8280529975891113
      ],
      "min": [
        0.4549050033092499,
        0.06228490173816681
      ],
      "type": "VEC2"
    },
    {
      "bufferView": 0,
      "byteOffset": 71136,
      "componentType": 5125,
      "count": 2970,
      "type": "SCALAR"
    }
  ],
  "asset": {
    "extras": {
      "author": "Ashkelon (https://sketchfab.com/Ashkelon)",
      "license": "CC-BY-4.0 (http://creativecommons.org/licenses/by/4.0/)",
      "source": "https://sketchfab.com/3d-models/gaz-66-7ded7bb56ffc4f8c9a3ab68de876073e",
      "title": "Gaz-66"
    },
    "generator": "Sketchfab-12.65.0",
    "version": "2.0"
  },
  "bufferViews": [
    {
      "buffer": 0,
      "byteLength": 83016,
      "name": "floatBufferViews",
      "target": 34963
    },
    {
      "buffer": 0,
      "byteLength": 47416,
      "byteOffset": 83016,
      "byteStride": 8,
      "name": "floatBufferViews",
      "target": 34962
    },
    {
      "buffer": 0,
      "byteLength": 142248,
      "byteOffset": 130432,
      "byteStride": 12,
      "name": "floatBufferViews",
      "target": 34962
    }
  ],
  "buffers": [
    {
      "byteLength": 272680,
      "uri": "scene.bin"
    }
  ],
  "images": [
    {
      "uri": "textures/material_baseColor.png"
    },
    {
      "uri": "textures/material_metallicRoughness.png"
    }
  ],
  "materials": [
    {
      "doubleSided": true,
      "name": "material",
      "occlusionTexture": {
        "index": 1
      },
      "pbrMetallicRoughness": {
        "baseColorTexture": {
          "index": 0
        },
        "metallicRoughnessTexture": {
          "index": 1
        }
      }
    }
  ],
  "meshes": [
    {
      "name": "Cube_Cube_1001_66_0",
      "primitives": [
        {
          "attributes": {
            "NORMAL": 1,
            "POSITION": 0,
            "TEXCOORD_0": 2
          },
          "indices": 3,
          "material": 0,
          "mode": 4
        }
      ]
    },
    {
      "name": "Cube_Cube_1001.004_66_0",
      "primitives": [
        {
          "attributes": {
            "NORMAL": 5,
            "POSITION": 4,
            "TEXCOORD_0": 6
          },
          "indices": 7,
          "material": 0,
          "mode": 4
        }
      ]
    },
    {
      "name": "Cube_Cube_1001.003_66_0",
      "primitives": [
        {
          "attributes": {
            "NORMAL": 9,
            "POSITION": 8,
            "TEXCOORD_0": 10
          },
          "indices": 11,
          "material": 0,
          "mode": 4
        }
      ]
    },
    {
      "name": "Cube_Cube_1001.002_66_0",
      "primitives": [
        {
          "attributes": {
            "NORMAL": 13,
            "POSITION": 12,
            "TEXCOORD_0": 14
          },
          "indices": 15,
          "material": 0,
          "mode": 4
        }
      ]
    },
    {
      "name": "Cube_Cube_1001.001_66_0",
      "primitives": [
        {
          "attributes": {
            "NORMAL": 17,
            "POSITION": 16,
            "TEXCOORD_0": 18
          },
          "indices": 19,
          "material": 0,
          "mode": 4
        }
      ]
    }
  ],
  "nodes": [
    {
      "children": [
        1
      ],
      "matrix": [
        1.0,
        0.0,
        0.0,
        0.0,
        0.0,
        0.0,
        -1.0,
        0.0,
        0.0,
        1.0,
        0.0,
        0.0,
        0.0,
        0.0,
        0.0,
        1.0
      ],
      "name": "Sketchfab_model"
    },
    {
      "children": [
        2
      ],
      "matrix": [
        1.0,
        0.0,
        0.0,
        0.0,
        0.0,
        0.0,
        1.0,
        0.0,
        0.0,
        -1.0,
        0.0,
        0.0,
        0.0,
        0.0,
        0.0,
        1.0
      ],
      "name": "7b4d874529694e5eb938a70b22489990.fbx"
    },
    {
      "children": [
        3
      ],
      "name": "RootNode"
    },
    {
      "children": [
        4,
        5,
        7,
        9,
        11
      ],
      "matrix": [
        0.7592805624008179,
        0.0,
        0.0,
        0.0,
        0.0,
        0.7592805624008078,
        0.0,
        0.0,
        0.0,
        0.0,
        0.7592805624008078,
        0.0,
        0.0,
        0.0,
        0.0,
        1.0
      ],
      "name": "Cube_Cube_1001"
    },
    {
      "mesh": 0,
      "name": "Cube_Cube_1001_66_0"
    },
    {
      "children": [
        6
      ],
      "matrix": [
        1.0,
        0.0,
        0.0,
        0.0,
        0.0,
        1.0,
        0.0,
        0.0,
        0.0,
        0.0,
        1.0,
        0.0,
        256.9762268066406,
        135.2453155517578,
        -509.025146484375,
        1.0
      ],
      "name": "Cube_Cube_1001.004"
    },
    {
      "mesh": 1,
      "name": "Cube_Cube_1001.004_66_0"
    },
    {
      "children": [
        8
      ],
      "matrix": [
        1.0,
        0.0,
        0.0,
        0.0,
        0.0,
        1.0,
        0.0,
        0.0,
        0.0,
        0.0,
        1.0,
        0.0,
        -275.7825012207031,
        135.24526977539063,
        -509.02490234375,
        1.0
      ],
      "name": "Cube_Cube_1001.003"
    },
    {
      "mesh": 2,
      "name": "Cube_Cube_1001.003_66_0"
    },
    {
      "children": [
        10
      ],
      "matrix": [
        1.0,
        0.0,
        0.0,
        0.0,
        0.0,
        1.0,
        0.0,
        0.0,
        0.0,
        0.0,
        1.0,
        0.0,
        -275.7828674316406,
        135.24574279785156,
        451.08404541015625,
        1.0
      ],
      "name": "Cube_Cube_1001.002"
    },
    {
      "mesh": 3,
      "name": "Cube_Cube_1001.002_66_0"
    },
    {
      "children": [
        12
      ],
      "matrix": [
        1.0,
        0.0,
        0.0,
        0.0,
        0.0,
        1.0,
        0.0,
        0.0,
        0.0,
        0.0,
        1.0,
        0.0,
        256.976318359375,
        135.2456512451172,
        451.08404541015625,
        1.0
      ],
      "name": "Cube_Cube_1001.001"
    },
    {
      "mesh": 4,
      "name": "Cube_Cube_1001.001_66_0"
    }
  ],
  "samplers": [
    {
      "magFilter": 9729,
      "minFilter": 9987,
      "wrapS": 10497,
      "wrapT": 10497
    }
  ],
  "scene": 0,
  "scenes": [
    {
      "name": "Sketchfab_Scene",
      "nodes": [
        0
      ]
    }
  ],
  "textures": [
    {
      "sampler": 0,
      "source": 0
    },
    {
      "sampler": 0,
      "source": 1
    }
  ]
}
